# xmcd
#
# Track frame offsets:
#	150
#	20041
#	31428
#	51246
#	68829
#	85026
#	99721
#	112042
#	126217
#	145736
#	158228
#	174546
#	189985
#	198423
#	208583
#	222785
#
# Disc length: 3241 seconds
#
# Revision: 0
# Processed by: cddbd v1.5PL3 Copyright (c) Steve Scherf et al.
# Submitted via: audiograbber 1.82.01
#
DISCID=e70ca710
DTITLE=Tony Viana e Banda - Gravado Ao Vivo no Circo Show em Março de 2004
DYEAR=2004
DGENRE=Country/Seresta
TTITLE0=Vai Dar Namoro - SHOWS: (71) 451-0222 - 9125-0899
TTITLE1=Querendo Você - SHOWS: (71) 451-0222 - 9125-0899
TTITLE2=Carência - Arrocha - SHOWS: (71) 451-0222 - 9125-0899
TTITLE3=Chance - SHOWS: (71) 451-0222 - 9125-0899
TTITLE4=Ligação Urbana - SHOWS: (71) 451-0222 - 9125-0899
TTITLE5=Mulher Bandida - SHOWS: (71) 451-0222 - 9125-0899
TTITLE6=Primeiro Pecado - SHOWS: (71) 451-0222 - 9125-0899
TTITLE7=Lábios de Mel - SHOWS: (71) 451-0222 - 9125-0899
TTITLE8=Deus Me Livre - SHOWS: (71) 451-0222 - 9125-0899
TTITLE9=Coração Partido - SHOWS: (71) 451-0222 - 9125-0899
TTITLE10=Coração Espinhado - SHOWS: (71) 451-0222 - 9125-0899
TTITLE11=Whisky A Go Go - SHOWS: (71) 451-0222 - 9125-0899
TTITLE12=La Bamba - SHOWS: (71) 451-0222 - 9125-0899
TTITLE13=Te Digo Que É Mentira - SHOWS: (71) 451-0222 - 9125-0899
TTITLE14=Escorpião - SHOWS: (71) 451-0222 - 9125-0899
TTITLE15=Eu Sei Que Te Perdi - SHOWS: (71) 451-0222 - 9125-0899
EXTD=Excelente Banda de Country que canta musicas de Seresta. Vale à Pena confe
EXTD=rir !
EXTT0=
EXTT1=
EXTT2=
EXTT3=
EXTT4=
EXTT5=
EXTT6=
EXTT7=
EXTT8=
EXTT9=
EXTT10=
EXTT11=
EXTT12=
EXTT13=
EXTT14=
EXTT15=
PLAYORDER=
